# xmcd
#
# Track frame offsets: 
#        150
#        10222
#        19125
#        30315
#        40652
#        49712
#        58777
#        70167
#        79345
#        89540
#        100607
#        106285
#        117720
#        129480
#        140745
#        150100
#        158262
#        167257
#        175560
#        187505
#        196647
#        208055
#        216080
#        224905
#
# Disc length: 3119 seconds
#
# Revision: 10
# Processed by: cddbd v1.5.2PL0 Copyright (c) Steve Scherf et al.
# Submitted via: ExactAudioCopyFreeDBPlugin 1.0
#
DISCID=350c2d18
DTITLE=Roger Miller - King of the Road^ The Genius of Roger Miller [di
DTITLE=sc 1]
DYEAR=1995
DGENRE=Country
TTITLE0=My Pillow
TTITLE1=Poor Little John
TTITLE2=A Man Like Me
TTITLE3=The Wrong Kind of Girl
TTITLE4=Jason Fleming
TTITLE5=A World So Full of Love
TTITLE6=When a House Is Not a Home
TTITLE7=You Don't Want My Love
TTITLE8=When Two Worlds Collide
TTITLE9=Sorry, Willie
TTITLE10=So Saith He the Lord
TTITLE11=Lock, Stock and Teardrops
TTITLE12=Ain't That Fine
TTITLE13=Less and Less
TTITLE14=Chug-A-Lug
TTITLE15=Lou's Got the Flu
TTITLE16=The Moon Is High (And So Am I)
TTITLE17=Dang Me
TTITLE18=It Takes All Kinds to Make a World
TTITLE19=Reincarnation
TTITLE20=Hard Headed Me
TTITLE21=Do Wacka Do
TTITLE22=Atta Boy Girl
TTITLE23=Our Hearts Will Play the Music
EXTD=
EXTT0=(Roger Miller)
EXTT1=(Roger Miller)
EXTT2=(Roger Miller)
EXTT3=(Roger Miller)
EXTT4=(Roger Miller)
EXTT5=(Roger Miller/Faron Young)
EXTT6=(Roger Miller)
EXTT7=(Roger Miller)
EXTT8=(Roger Miller/Bill Anderson)
EXTT9=(Roger Miller)
EXTT10=(Roger Miller)
EXTT11=(Roger Miller)
EXTT12=(Dorsey Burnette)
EXTT13=(Roger Miller)
EXTT14=(Roger Miller)
EXTT15=(Roger Miller)
EXTT16=(Roger Miller)
EXTT17=(Roger Miller)
EXTT18=(Roger Miller)
EXTT19=(Roger Miller)
EXTT20=(Roger Miller)
EXTT21=(Roger Miller)
EXTT22=(Roger Miller)
EXTT23=(Roger Miller)
PLAYORDER=
